<?xml version="1.0" encoding="UTF-8" standalone="no"?>
<!DOCTYPE svg PUBLIC "-//W3C//DTD SVG 1.1//EN"
 "http://www.w3.org/Graphics/SVG/1.1/DTD/svg11.dtd">
<!-- Generated by graphviz version 2.43.0 (0)
 -->
<!-- Title: axiom_ir_flow Pages: 1 -->
<svg width="965pt" height="356pt"
 viewBox="0.00 0.00 965.00 356.00" xmlns="http://www.w3.org/2000/svg" xmlns:xlink="http://www.w3.org/1999/xlink">
<g id="graph0" class="graph" transform="scale(1 1) rotate(0) translate(4 352)">
<title>axiom_ir_flow</title>
<polygon fill="white" stroke="transparent" points="-4,4 -4,-352 961,-352 961,4 -4,4"/>
<g id="clust1" class="cluster">
<title>cluster_producer</title>
<polygon fill="white" stroke="#94a3b8" stroke-dasharray="5,2" points="0,-139 0,-217 153,-217 153,-139 0,-139"/>
<text text-anchor="middle" x="76.5" y="-204.2" font-family="Helvetica,sans-Serif" font-size="11.00" fill="#475569">Producer (P1.15 emitter)</text>
</g>
<g id="clust2" class="cluster">
<title>cluster_ir</title>
<path fill="#eef4ff" stroke="#1e3a8a" d="M199,-104C199,-104 732,-104 732,-104 738,-104 744,-110 744,-116 744,-116 744,-240 744,-240 744,-246 738,-252 732,-252 732,-252 199,-252 199,-252 193,-252 187,-246 187,-240 187,-240 187,-116 187,-116 187,-110 193,-104 199,-104"/>
<text text-anchor="middle" x="234.5" y="-239.2" font-family="Helvetica,sans-Serif" font-size="11.00" fill="#1e3a8a">AXIOM&#45;IR v0.1</text>
</g>
<g id="clust3" class="cluster">
<title>cluster_consumer</title>
<polygon fill="white" stroke="#94a3b8" stroke-dasharray="5,2" points="778,-8 778,-340 949,-340 949,-8 778,-8"/>
<text text-anchor="middle" x="817" y="-327.2" font-family="Helvetica,sans-Serif" font-size="11.00" fill="#475569">Consumers</text>
</g>
<!-- apk_l1 -->
<g id="node1" class="node">
<title>apk_l1</title>
<path fill="#fff3d6" stroke="#1f2d3d" d="M112,-188.5C112,-188.5 41,-188.5 41,-188.5 35,-188.5 29,-182.5 29,-176.5 29,-176.5 29,-159.5 29,-159.5 29,-153.5 35,-147.5 41,-147.5 41,-147.5 112,-147.5 112,-147.5 118,-147.5 124,-153.5 124,-159.5 124,-159.5 124,-176.5 124,-176.5 124,-182.5 118,-188.5 112,-188.5"/>
<text text-anchor="middle" x="76.5" y="-176.5" font-family="Helvetica,sans-Serif" font-size="10.00">axiom&#45;l1&#45;rs</text>
<text text-anchor="middle" x="76.5" y="-165.5" font-family="Helvetica,sans-Serif" font-size="10.00">ManifestModule</text>
<text text-anchor="middle" x="76.5" y="-154.5" font-family="Helvetica,sans-Serif" font-size="10.00">ResourceTable</text>
</g>
<!-- manifest_dialect -->
<g id="node2" class="node">
<title>manifest_dialect</title>
<path fill="#dbe7ff" stroke="#1f2d3d" d="M336,-223.5C336,-223.5 212,-223.5 212,-223.5 206,-223.5 200,-217.5 200,-211.5 200,-211.5 200,-194.5 200,-194.5 200,-188.5 206,-182.5 212,-182.5 212,-182.5 336,-182.5 336,-182.5 342,-182.5 348,-188.5 348,-194.5 348,-194.5 348,-211.5 348,-211.5 348,-217.5 342,-223.5 336,-223.5"/>
<text text-anchor="middle" x="274" y="-211.5" font-family="Helvetica,sans-Serif" font-size="10.00">Manifest dialect</text>
<text text-anchor="middle" x="274" y="-200.5" font-family="Helvetica,sans-Serif" font-size="10.00">Component / IntentFilter /</text>
<text text-anchor="middle" x="274" y="-189.5" font-family="Helvetica,sans-Serif" font-size="10.00">Permission / DataAuthority</text>
</g>
<!-- apk_l1&#45;&gt;manifest_dialect -->
<g id="edge1" class="edge">
<title>apk_l1&#45;&gt;manifest_dialect</title>
<path fill="none" stroke="#3b4252" d="M77,-188.78C77,-197.65 77,-206 77,-206 77,-206 189.8,-206 189.8,-206"/>
<polygon fill="#3b4252" stroke="#3b4252" points="189.8,-209.5 199.8,-206 189.8,-202.5 189.8,-209.5"/>
</g>
<!-- resource_dialect -->
<g id="node3" class="node">
<title>resource_dialect</title>
<path fill="#dbe7ff" stroke="#1f2d3d" d="M341,-153.5C341,-153.5 207,-153.5 207,-153.5 201,-153.5 195,-147.5 195,-141.5 195,-141.5 195,-124.5 195,-124.5 195,-118.5 201,-112.5 207,-112.5 207,-112.5 341,-112.5 341,-112.5 347,-112.5 353,-118.5 353,-124.5 353,-124.5 353,-141.5 353,-141.5 353,-147.5 347,-153.5 341,-153.5"/>
<text text-anchor="middle" x="274" y="-141.5" font-family="Helvetica,sans-Serif" font-size="10.00">Resource dialect</text>
<text text-anchor="middle" x="274" y="-130.5" font-family="Helvetica,sans-Serif" font-size="10.00">StringPool / Configuration /</text>
<text text-anchor="middle" x="274" y="-119.5" font-family="Helvetica,sans-Serif" font-size="10.00">ResourceEntry / ResourceRef</text>
</g>
<!-- apk_l1&#45;&gt;resource_dialect -->
<g id="edge2" class="edge">
<title>apk_l1&#45;&gt;resource_dialect</title>
<path fill="none" stroke="#3b4252" d="M77,-147.22C77,-138.35 77,-130 77,-130 77,-130 184.72,-130 184.72,-130"/>
<polygon fill="#3b4252" stroke="#3b4252" points="184.72,-133.5 194.72,-130 184.72,-126.5 184.72,-133.5"/>
</g>
<!-- lowering_pass -->
<g id="node4" class="node">
<title>lowering_pass</title>
<path fill="#fff3d6" stroke="#1f2d3d" d="M507,-193C507,-193 415,-193 415,-193 409,-193 403,-187 403,-181 403,-181 403,-169 403,-169 403,-163 409,-157 415,-157 415,-157 507,-157 507,-157 513,-157 519,-163 519,-169 519,-169 519,-181 519,-181 519,-187 513,-193 507,-193"/>
<text text-anchor="middle" x="461" y="-178" font-family="Helvetica,sans-Serif" font-size="10.00">lowering::resolve</text>
<text text-anchor="middle" x="461" y="-167" font-family="Helvetica,sans-Serif" font-size="10.00">(@string/... → literal)</text>
</g>
<!-- manifest_dialect&#45;&gt;lowering_pass -->
<g id="edge3" class="edge">
<title>manifest_dialect&#45;&gt;lowering_pass</title>
<path fill="none" stroke="#3b4252" d="M348.18,-187.75C348.18,-187.75 392.78,-187.75 392.78,-187.75"/>
<polygon fill="#3b4252" stroke="#3b4252" points="392.78,-191.25 402.78,-187.75 392.78,-184.25 392.78,-191.25"/>
</g>
<!-- canonical -->
<g id="node5" class="node">
<title>canonical</title>
<path fill="#dcfce7" stroke="#1f2d3d" d="M724,-195.5C724,-195.5 581,-195.5 581,-195.5 575,-195.5 569,-189.5 569,-183.5 569,-183.5 569,-166.5 569,-166.5 569,-160.5 575,-154.5 581,-154.5 581,-154.5 724,-154.5 724,-154.5 730,-154.5 736,-160.5 736,-166.5 736,-166.5 736,-183.5 736,-183.5 736,-189.5 730,-195.5 724,-195.5"/>
<text text-anchor="middle" x="652.5" y="-183.5" font-family="Helvetica,sans-Serif" font-size="10.00">canonical bytes</text>
<text text-anchor="middle" x="652.5" y="-172.5" font-family="Helvetica,sans-Serif" font-size="10.00">(deterministic, length&#45;prefixed,</text>
<text text-anchor="middle" x="652.5" y="-161.5" font-family="Helvetica,sans-Serif" font-size="10.00">SHA&#45;256&#45;hashable)</text>
</g>
<!-- manifest_dialect&#45;&gt;canonical -->
<g id="edge6" class="edge">
<title>manifest_dialect&#45;&gt;canonical</title>
<path fill="none" stroke="#3b4252" d="M348.01,-200.67C450.99,-200.67 625,-200.67 625,-200.67 625,-200.67 625,-200.17 625,-200.17"/>
<polygon fill="#3b4252" stroke="#3b4252" points="628.5,-205.72 625,-195.72 621.5,-205.72 628.5,-205.72"/>
<text text-anchor="middle" x="448.25" y="-203.47" font-family="Helvetica,sans-Serif" font-size="9.00">encode_manifest</text>
</g>
<!-- lean -->
<g id="node10" class="node">
<title>lean</title>
<path fill="#e9d5ff" stroke="#1f2d3d" d="M929,-52C929,-52 798,-52 798,-52 792,-52 786,-46 786,-40 786,-40 786,-28 786,-28 786,-22 792,-16 798,-16 798,-16 929,-16 929,-16 935,-16 941,-22 941,-28 941,-28 941,-40 941,-40 941,-46 935,-52 929,-52"/>
<text text-anchor="middle" x="863.5" y="-37" font-family="Helvetica,sans-Serif" font-size="10.00">P1.5+ Lean reflection</text>
<text text-anchor="middle" x="863.5" y="-26" font-family="Helvetica,sans-Serif" font-size="10.00">(theorems/Apkaxiom/Ir.lean)</text>
</g>
<!-- manifest_dialect&#45;&gt;lean -->
<g id="edge12" class="edge">
<title>manifest_dialect&#45;&gt;lean</title>
<path fill="none" stroke="#3b4252" stroke-dasharray="5,2" d="M348.11,-205.83C493.7,-205.83 803,-205.83 803,-205.83 803,-205.83 803,-62.06 803,-62.06"/>
<polygon fill="#3b4252" stroke="#3b4252" points="806.5,-62.06 803,-52.06 799.5,-62.06 806.5,-62.06"/>
<text text-anchor="middle" x="625.94" y="-198.63" font-family="Helvetica,sans-Serif" font-size="9.00">reflection</text>
</g>
<!-- resource_dialect&#45;&gt;lowering_pass -->
<g id="edge4" class="edge">
<title>resource_dialect&#45;&gt;lowering_pass</title>
<path fill="none" stroke="#3b4252" d="M353.03,-151C404.07,-151 461,-151 461,-151 461,-151 461,-151.58 461,-151.58"/>
<polygon fill="#3b4252" stroke="#3b4252" points="457.5,-146.81 461,-156.81 464.5,-146.81 457.5,-146.81"/>
</g>
<!-- resource_dialect&#45;&gt;canonical -->
<g id="edge7" class="edge">
<title>resource_dialect&#45;&gt;canonical</title>
<path fill="none" stroke="#3b4252" d="M353.21,-148.5C456.73,-148.5 625,-148.5 625,-148.5 625,-148.5 625,-149.09 625,-149.09"/>
<polygon fill="#3b4252" stroke="#3b4252" points="621.5,-144.38 625,-154.38 628.5,-144.38 621.5,-144.38"/>
<text text-anchor="middle" x="450.9" y="-141.3" font-family="Helvetica,sans-Serif" font-size="9.00">encode_resource</text>
</g>
<!-- resource_dialect&#45;&gt;lean -->
<g id="edge13" class="edge">
<title>resource_dialect&#45;&gt;lean</title>
<path fill="none" stroke="#3b4252" stroke-dasharray="5,2" d="M353.13,-131.5C498.88,-131.5 795,-131.5 795,-131.5 795,-131.5 795,-62.34 795,-62.34"/>
<polygon fill="#3b4252" stroke="#3b4252" points="798.5,-62.34 795,-52.34 791.5,-62.34 798.5,-62.34"/>
<text text-anchor="middle" x="587.14" y="-124.3" font-family="Helvetica,sans-Serif" font-size="9.00">reflection</text>
</g>
<!-- lowering_pass&#45;&gt;canonical -->
<g id="edge5" class="edge">
<title>lowering_pass&#45;&gt;canonical</title>
<path fill="none" stroke="#3b4252" d="M519.24,-175C519.24,-175 558.78,-175 558.78,-175"/>
<polygon fill="#3b4252" stroke="#3b4252" points="558.78,-178.5 568.78,-175 558.78,-171.5 558.78,-178.5"/>
</g>
<!-- forensics -->
<g id="node6" class="node">
<title>forensics</title>
<path fill="#fef3c7" stroke="#1f2d3d" d="M897.5,-312C897.5,-312 829.5,-312 829.5,-312 823.5,-312 817.5,-306 817.5,-300 817.5,-300 817.5,-288 817.5,-288 817.5,-282 823.5,-276 829.5,-276 829.5,-276 897.5,-276 897.5,-276 903.5,-276 909.5,-282 909.5,-288 909.5,-288 909.5,-300 909.5,-300 909.5,-306 903.5,-312 897.5,-312"/>
<text text-anchor="middle" x="863.5" y="-297" font-family="Helvetica,sans-Serif" font-size="10.00">P2 / G4</text>
<text text-anchor="middle" x="863.5" y="-286" font-family="Helvetica,sans-Serif" font-size="10.00">forensic passes</text>
</g>
<!-- canonical&#45;&gt;forensics -->
<g id="edge8" class="edge">
<title>canonical&#45;&gt;forensics</title>
<path fill="none" stroke="#3b4252" d="M681,-195.73C681,-229.82 681,-294 681,-294 681,-294 807.45,-294 807.45,-294"/>
<polygon fill="#3b4252" stroke="#3b4252" points="807.45,-297.5 817.45,-294 807.45,-290.5 807.45,-297.5"/>
</g>
<!-- symbolic -->
<g id="node7" class="node">
<title>symbolic</title>
<path fill="#fef3c7" stroke="#1f2d3d" d="M903.5,-247C903.5,-247 823.5,-247 823.5,-247 817.5,-247 811.5,-241 811.5,-235 811.5,-235 811.5,-223 811.5,-223 811.5,-217 817.5,-211 823.5,-211 823.5,-211 903.5,-211 903.5,-211 909.5,-211 915.5,-217 915.5,-223 915.5,-223 915.5,-235 915.5,-235 915.5,-241 909.5,-247 903.5,-247"/>
<text text-anchor="middle" x="863.5" y="-232" font-family="Helvetica,sans-Serif" font-size="10.00">P3 / G5</text>
<text text-anchor="middle" x="863.5" y="-221" font-family="Helvetica,sans-Serif" font-size="10.00">symbolic resolver</text>
</g>
<!-- canonical&#45;&gt;symbolic -->
<g id="edge9" class="edge">
<title>canonical&#45;&gt;symbolic</title>
<path fill="none" stroke="#3b4252" d="M736.09,-188.75C795.21,-188.75 864,-188.75 864,-188.75 864,-188.75 864,-200.76 864,-200.76"/>
<polygon fill="#3b4252" stroke="#3b4252" points="860.5,-200.76 864,-210.76 867.5,-200.76 860.5,-200.76"/>
</g>
<!-- bsh -->
<g id="node8" class="node">
<title>bsh</title>
<path fill="#fef3c7" stroke="#1f2d3d" d="M901.5,-182C901.5,-182 825.5,-182 825.5,-182 819.5,-182 813.5,-176 813.5,-170 813.5,-170 813.5,-158 813.5,-158 813.5,-152 819.5,-146 825.5,-146 825.5,-146 901.5,-146 901.5,-146 907.5,-146 913.5,-152 913.5,-158 913.5,-158 913.5,-170 913.5,-170 913.5,-176 907.5,-182 901.5,-182"/>
<text text-anchor="middle" x="863.5" y="-167" font-family="Helvetica,sans-Serif" font-size="10.00">P3 / G6</text>
<text text-anchor="middle" x="863.5" y="-156" font-family="Helvetica,sans-Serif" font-size="10.00">BSH&#45;256 + bisim</text>
</g>
<!-- canonical&#45;&gt;bsh -->
<g id="edge10" class="edge">
<title>canonical&#45;&gt;bsh</title>
<path fill="none" stroke="#3b4252" d="M736.2,-168.25C736.2,-168.25 803.36,-168.25 803.36,-168.25"/>
<polygon fill="#3b4252" stroke="#3b4252" points="803.36,-171.75 813.36,-168.25 803.36,-164.75 803.36,-171.75"/>
</g>
<!-- zk -->
<g id="node9" class="node">
<title>zk</title>
<path fill="#fef3c7" stroke="#1f2d3d" d="M893,-117C893,-117 834,-117 834,-117 828,-117 822,-111 822,-105 822,-105 822,-93 822,-93 822,-87 828,-81 834,-81 834,-81 893,-81 893,-81 899,-81 905,-87 905,-93 905,-93 905,-105 905,-105 905,-111 899,-117 893,-117"/>
<text text-anchor="middle" x="863.5" y="-102" font-family="Helvetica,sans-Serif" font-size="10.00">P4 / G7</text>
<text text-anchor="middle" x="863.5" y="-91" font-family="Helvetica,sans-Serif" font-size="10.00">Halo2 over IR</text>
</g>
<!-- canonical&#45;&gt;zk -->
<g id="edge11" class="edge">
<title>canonical&#45;&gt;zk</title>
<path fill="none" stroke="#3b4252" d="M681,-154.44C681,-131.26 681,-96.75 681,-96.75 681,-96.75 811.63,-96.75 811.63,-96.75"/>
<polygon fill="#3b4252" stroke="#3b4252" points="811.63,-100.25 821.63,-96.75 811.63,-93.25 811.63,-100.25"/>
</g>
</g>
</svg>
